<?xml version="1.0" encoding="UTF-8"?>
<svg id="Layer_1" xmlns="http://www.w3.org/2000/svg" version="1.1" viewBox="0 0 306.3 49.2">
  <!-- Generator: Adobe Illustrator 29.7.1, SVG Export Plug-In . SVG Version: 2.1.1 Build 8)  -->
  <defs>
    <style>
      .st0 {
        fill: #fff;
      }

      .st1 {
        fill: #2874bf;
      }

      .st2 {
        fill: #3b97ff;
      }

      .st3 {
        fill: #5ba7f2;
      }
    </style>
  </defs>
  <path class="st0" d="M52.2,40.6V8.6h20.3v6.4h-13.1v6.8h12.1v6.4h-12.1v12.4h-7.2Z"/>
  <path class="st0" d="M77.1,40.6V8.6h7.2v25.6h12.7v6.4h-19.9Z"/>
  <path class="st0" d="M101.1,40.6V8.6h20.1v6.4h-12.9v5.9h11.9v6.4h-11.9v7h12.9v6.4h-20.1Z"/>
  <path class="st0" d="M142.3,24.4l9.7,16.2h-7.5l-6.2-10.6-6.2,10.6h-7.5l9.7-16.2-9.3-15.7h7.5l5.9,10.1,5.9-10.1h7.5l-9.5,15.7Z"/>
  <path class="st0" d="M156.3,40.6V8.6h7.2v32h-7.2Z"/>
  <path class="st2" d="M179.5,41c-7.4-.7-10.3-5.2-10.3-9.7v-13.3c0-4.8,3.4-9.8,12.4-9.8s12.4,4.9,12.4,9.8v13.3c0,3.7-2,7.5-7.1,9.1l2.5,6-6.5,2.7-3.4-8.1ZM186.8,18.6c0-2.5-1.6-4-5.2-4s-5.2,1.5-5.2,4v12.1c0,2.5,1.6,4,5.2,4s5.2-1.5,5.2-4v-12.1Z"/>
  <path class="st2" d="M223.4,8.6v22.7c0,4.8-3,9.8-12,9.8s-12.1-4.9-12.1-9.8V8.6h7.2v22c0,2.6,1.2,4.1,4.8,4.1s4.8-1.5,4.8-4.1V8.6h7.3Z"/>
  <path class="st2" d="M253.5,31.3c0,4.8-3.4,9.8-12.4,9.8s-12.4-4.9-12.4-9.8v-13.3c0-4.8,3.4-9.8,12.4-9.8s12.4,4.9,12.4,9.8v13.3ZM246.3,18.6c0-2.5-1.6-4-5.2-4s-5.2,1.5-5.2,4v12.1c0,2.5,1.6,4,5.2,4s5.2-1.5,5.2-4v-12.1Z"/>
  <path class="st2" d="M272.2,15v25.6h-7.2V15h-8.6v-6.4h24.4v6.4h-8.6Z"/>
  <path class="st2" d="M284.5,40.6V8.6h20.1v6.4h-12.9v5.9h11.9v6.4h-11.9v7h12.9v6.4h-20.1Z"/>
  <polygon class="st1" points="39.9 40.5 33.8 37.1 33.8 37.1 4.5 34.5 1.1 40.5 39.9 40.5"/>
  <polygon class="st3" points="4.5 34.5 7.1 5.1 1.1 1.7 1.1 1.7 1.1 40.5 1.1 40.5 4.5 34.5"/>
  <path class="st2" d="M8.5,16.7c.8-.8,1.7-1.6,2.6-2.5,3,2.1,5.9,4.2,9.1,6.4.3-.4.7-.8,1-1.2,5.3-6.7,11.2-12.8,18.1-18,1.7-1.3,3.4-1.3,5.5-1.1-10.1,9.8-17.4,21.5-24.5,33.3-3.9-5.6-7.8-11.1-11.8-16.9Z"/>
  <path class="st1" d="M7.1,5.1l21.9,2c1.9-1.9,3.9-3.7,6-5.4H1.1l6,3.4h0Z"/>
  <path class="st3" d="M35.9,14l-2.1,23.1,6,3.4V9.1c-1.3,1.6-2.6,3.2-3.9,4.9Z"/>
</svg>